<svg width="24" height="24" viewBox="0 0 24 24" fill="none" xmlns="http://www.w3.org/2000/svg">
<path d="M15.9105 0.75C15.9983 2.0205 15.5839 3.0435 14.9726 3.79387C14.0734 4.8975 12.7481 5.412 11.9666 5.259C11.8196 4.37738 12.1841 3.252 12.9255 2.34487C13.6238 1.49062 14.6561 0.83025 15.9105 0.75ZM12.1346 6.39188C13.0264 6.39188 13.992 5.48812 15.582 5.48812C16.2986 5.48812 18.3525 5.70487 19.485 7.44637C19.035 7.77225 17.373 8.8185 17.373 11.1994C17.373 14.0048 19.6451 14.9756 19.9898 15.1534C19.8656 15.6169 19.2664 17.2245 18.2561 18.4834C17.9434 18.873 17.004 20.3685 15.6015 20.3685C14.3276 20.3685 13.8431 19.5802 12.3735 19.5802C10.6995 19.5802 10.6193 20.3827 8.99101 20.3827C8.64901 20.3827 8.14726 20.2283 7.74976 19.8784C6.33789 18.6353 4.00989 15.4222 4.00989 11.415C4.00989 7.45538 6.63601 5.5545 8.93889 5.5545C10.3871 5.55413 11.2133 6.39188 12.1346 6.39188Z" fill="#413937"/>
</svg>
